<?xml version="1.0" encoding="UTF-8" standalone="no"?><!DOCTYPE score-partwise PUBLIC "-//Recordare//DTD MusicXML 3.1 Partwise//EN" "http://www.musicxml.org/dtds/partwise.dtd"><score-partwise version="3.1"><work><work-title>La Cucaracha</work-title></work><identification><creator type="composer">Mexico - Traditional</creator><rights>CC0 - Public Domain</rights><encoding><software>Flat</software><encoding-date>2020-07-17</encoding-date></encoding><source>https://flat.io/score/5e976167b8d3790ca8599205-la-cucaracha</source></identification><defaults><scaling><millimeters>7.05556</millimeters><tenths>40</tenths></scaling><page-layout><page-height>1683.36</page-height><page-width>1190.88</page-width><page-margins type="even"><left-margin>56.6929</left-margin><right-margin>56.6929</right-margin><top-margin>56.6929</top-margin><bottom-margin>113.386</bottom-margin></page-margins><page-margins type="odd"><left-margin>56.6929</left-margin><right-margin>56.6929</right-margin><top-margin>56.6929</top-margin><bottom-margin>113.386</bottom-margin></page-margins></page-layout><system-layout><system-distance>114.29284139033614</system-distance></system-layout><staff-layout><staff-distance>71.99995464569787</staff-distance></staff-layout></defaults><credit><credit-type>title</credit-type><credit-words>La Cucaracha
</credit-words></credit><part-list><score-part id="P1"><part-name>Ukulele</part-name><part-abbreviation>Uk.</part-abbreviation><score-instrument id="P1-I1"><instrument-name>Ukulele</instrument-name></score-instrument><midi-device id="P1-I1" port="1"/><midi-instrument id="P1-I1"><midi-channel>1</midi-channel><midi-program>25</midi-program></midi-instrument></score-part><score-part id="P2"><part-name>Flute</part-name><part-abbreviation>Flt.</part-abbreviation><score-instrument id="P2-I1"><instrument-name>Flute</instrument-name></score-instrument><midi-device id="P2-I1" port="1"/><midi-instrument id="P2-I1"><midi-channel>2</midi-channel><midi-program>1</midi-program></midi-instrument></score-part><score-part id="P3"><part-name>Slap Bass</part-name><part-abbreviation>Sl. Bass</part-abbreviation><score-instrument id="P3-I1"><instrument-name>Slap Bass</instrument-name></score-instrument><midi-device id="P3-I1" port="1"/><midi-instrument id="P3-I1"><midi-channel>3</midi-channel><midi-program>37</midi-program></midi-instrument></score-part></part-list><part id="P1"><measure number="1" width="201.18"><attributes><divisions>2</divisions><key><fifths>-1</fifths></key><time><beats>4</beats><beat-type>4</beat-type></time><clef><sign>F</sign><line>4</line></clef><staff-details><staff-lines>4</staff-lines><staff-tuning line="1"><tuning-step>G</tuning-step><tuning-alter>0</tuning-alter><tuning-octave>4</tuning-octave></staff-tuning><staff-tuning line="2"><tuning-step>C</tuning-step><tuning-alter>0</tuning-alter><tuning-octave>4</tuning-octave></staff-tuning><staff-tuning line="3"><tuning-step>E</tuning-step><tuning-alter>0</tuning-alter><tuning-octave>4</tuning-octave></staff-tuning><staff-tuning line="4"><tuning-step>A</tuning-step><tuning-alter>0</tuning-alter><tuning-octave>4</tuning-octave></staff-tuning></staff-details></attributes><sound/><sound tempo="160"/><direction placement="above"><direction-type><metronome><beat-unit>half</beat-unit><per-minute>80</per-minute></metronome></direction-type><staff>1</staff></direction><note default-x="106.77" default-y="-30.00"><pitch><step>C</step><octave>4</octave></pitch><duration>1</duration><voice>1</voice><type>eighth</type><stem>down</stem><staff>1</staff><notations><technical><fret>0</fret><string>3</string></technical></notations></note><note default-x="138.71" default-y="-30.00"><pitch><step>C</step><octave>4</octave></pitch><duration>1</duration><voice>1</voice><type>eighth</type><stem>down</stem><staff>1</staff><notations><technical><fret>0</fret><string>3</string></technical></notations></note><note default-x="170.65" default-y="-30.00"><pitch><step>C</step><octave>4</octave></pitch><duration>1</duration><voice>1</voice><type>eighth</type><stem>down</stem><staff>1</staff><notations><technical><fret>0</fret><string>3</string></technical></notations></note></measure><measure number="2" width="204.65"><attributes/><harmony print-frame="no" placement="above"><root><root-step>F</root-step></root><kind>major</kind><frame><frame-strings>4</frame-strings><frame-frets>4</frame-frets><frame-note><string>4</string><fret>2</fret></frame-note><frame-note><string>3</string><fret>0</fret></frame-note><frame-note><string>2</string><fret>1</fret></frame-note><frame-note><string>1</string><fret>0</fret></frame-note></frame><staff>1</staff></harmony><note default-x="22.02" default-y="-15.00"><pitch><step>F</step><octave>4</octave></pitch><duration>3</duration><voice>1</voice><type>quarter</type><dot/><stem>down</stem><staff>1</staff><notations><technical><fret>1</fret><string>2</string></technical></notations></note><note default-x="62.95" default-y="0.00"><pitch><step>A</step><octave>4</octave></pitch><duration>1</duration><tie type="start"/><voice>1</voice><type>eighth</type><stem>down</stem><staff>1</staff><notations><tied type="start"/><technical><fret>0</fret><string>1</string></technical></notations></note><note default-x="92.09" default-y="0.00"><pitch><step>A</step><octave>4</octave></pitch><duration>1</duration><tie type="stop"/><voice>1</voice><type>eighth</type><stem>down</stem><staff>1</staff><beam number="1">begin</beam><notations><tied type="stop"/><technical><fret>0</fret><string>1</string></technical></notations></note><note default-x="113.07" default-y="-30.00"><pitch><step>C</step><octave>4</octave></pitch><duration>1</duration><voice>1</voice><type>eighth</type><stem>down</stem><staff>1</staff><beam number="1">end</beam><notations><technical><fret>0</fret><string>3</string></technical></notations></note><note default-x="143.17" default-y="-30.00"><pitch><step>C</step><octave>4</octave></pitch><duration>1</duration><voice>1</voice><type>eighth</type><stem>down</stem><staff>1</staff><beam number="1">begin</beam><notations><technical><fret>0</fret><string>3</string></technical></notations></note><note default-x="175.07" default-y="-30.00"><pitch><step>C</step><octave>4</octave></pitch><duration>1</duration><voice>1</voice><type>eighth</type><stem>down</stem><staff>1</staff><beam number="1">end</beam><notations><technical><fret>0</fret><string>3</string></technical></notations></note></measure><measure number="3" width="132.24"><attributes/><note default-x="22.02" default-y="-15.00"><pitch><step>F</step><octave>4</octave></pitch><duration>3</duration><voice>1</voice><type>quarter</type><dot/><stem>down</stem><staff>1</staff><notations><technical><fret>1</fret><string>2</string></technical></notations></note><note default-x="57.92" default-y="0.00"><pitch><step>A</step><octave>4</octave></pitch><duration>1</duration><tie type="start"/><voice>1</voice><type>eighth</type><stem>down</stem><staff>1</staff><notations><tied type="start"/><technical><fret>0</fret><string>1</string></technical></notations></note><note default-x="87.25" default-y="0.00"><pitch><step>A</step><octave>4</octave></pitch><duration>4</duration><tie type="stop"/><voice>1</voice><type>half</type><stem>down</stem><staff>1</staff><notations><tied type="stop"/><technical><fret>0</fret><string>1</string></technical></notations></note></measure><measure number="4" width="246.24"><attributes/><note><rest/><duration>2</duration><voice>1</voice><type>quarter</type><staff>1</staff></note><note default-x="39.16" default-y="-15.00"><pitch><step>F</step><octave>4</octave></pitch><duration>1</duration><voice>1</voice><type>eighth</type><stem>down</stem><staff>1</staff><beam number="1">begin</beam><notations><technical><fret>1</fret><string>2</string></technical></notations></note><note default-x="72.26" default-y="-15.00"><pitch><step>F</step><octave>4</octave></pitch><duration>1</duration><voice>1</voice><type>eighth</type><stem>down</stem><staff>1</staff><beam number="1">end</beam><notations><technical><fret>1</fret><string>2</string></technical></notations></note><note default-x="111.16" default-y="-15.00"><pitch><step>E</step><octave>4</octave></pitch><duration>1</duration><voice>1</voice><type>eighth</type><stem>down</stem><staff>1</staff><beam number="1">begin</beam><notations><technical><fret>0</fret><string>2</string></technical></notations></note><note default-x="149.46" default-y="-15.00"><pitch><step>E</step><octave>4</octave></pitch><duration>1</duration><voice>1</voice><type>eighth</type><stem>down</stem><staff>1</staff><beam number="1">end</beam><notations><technical><fret>0</fret><string>2</string></technical></notations></note><note default-x="181.36" default-y="-30.00"><pitch><step>D</step><octave>4</octave></pitch><duration>1</duration><voice>1</voice><type>eighth</type><stem>down</stem><staff>1</staff><beam number="1">begin</beam><notations><technical><fret>2</fret><string>3</string></technical></notations></note><note default-x="214.66" default-y="-30.00"><pitch><step>D</step><octave>4</octave></pitch><duration>1</duration><voice>1</voice><type>eighth</type><stem>down</stem><staff>1</staff><beam number="1">end</beam><notations><technical><fret>2</fret><string>3</string></technical></notations></note></measure><measure number="5" width="220.38"><attributes/><harmony print-frame="no" placement="above"><root><root-step>C</root-step></root><kind text="7">dominant</kind><frame><frame-strings>4</frame-strings><frame-frets>4</frame-frets><frame-note><string>4</string><fret>0</fret></frame-note><frame-note><string>3</string><fret>0</fret></frame-note><frame-note><string>2</string><fret>0</fret></frame-note><frame-note><string>1</string><fret>1</fret></frame-note></frame><staff>1</staff></harmony><note default-x="28.22" default-y="-30.00"><pitch><step>C</step><octave>4</octave></pitch><duration>4</duration><tie type="start"/><voice>1</voice><type>half</type><stem>down</stem><staff>1</staff><notations><tied type="start"/><technical><fret>0</fret><string>3</string></technical></notations></note><note default-x="85.13" default-y="-30.00"><pitch><step>C</step><octave>4</octave></pitch><duration>1</duration><tie type="stop"/><voice>1</voice><type>eighth</type><stem>down</stem><staff>1</staff><beam number="1">begin</beam><notations><tied type="stop"/><technical><fret>0</fret><string>3</string></technical></notations></note><note default-x="108.40" default-y="-30.00"><pitch><step>C</step><octave>4</octave></pitch><duration>1</duration><voice>1</voice><type>eighth</type><stem>down</stem><staff>1</staff><beam number="1">end</beam><notations><technical><fret>0</fret><string>3</string></technical></notations></note><note default-x="151.10" default-y="-30.00"><pitch><step>C</step><octave>4</octave></pitch><duration>1</duration><voice>1</voice><type>eighth</type><stem>down</stem><staff>1</staff><beam number="1">begin</beam><notations><technical><fret>0</fret><string>3</string></technical></notations></note><note default-x="189.60" default-y="-30.00"><pitch><step>C</step><octave>4</octave></pitch><duration>1</duration><voice>1</voice><type>eighth</type><stem>down</stem><staff>1</staff><beam number="1">end</beam><notations><technical><fret>0</fret><string>3</string></technical></notations></note></measure><measure number="6" width="349.82"><attributes/><note default-x="81.87" default-y="-15.00"><pitch><step>E</step><octave>4</octave></pitch><duration>3</duration><voice>1</voice><type>quarter</type><dot/><stem>down</stem><staff>1</staff><notations><technical><fret>0</fret><string>2</string></technical></notations></note><note default-x="156.18" default-y="-15.00"><pitch><step>G</step><octave>4</octave></pitch><duration>1</duration><tie type="start"/><voice>1</voice><type>eighth</type><stem>down</stem><staff>1</staff><notations><tied type="start"/><technical><fret>3</fret><string>2</string></technical></notations></note><note default-x="194.27" default-y="-15.00"><pitch><step>G</step><octave>4</octave></pitch><duration>1</duration><tie type="stop"/><voice>1</voice><type>eighth</type><stem>down</stem><staff>1</staff><beam number="1">begin</beam><notations><tied type="stop"/><technical><fret>3</fret><string>2</string></technical></notations></note><note default-x="232.35" default-y="-30.00"><pitch><step>C</step><octave>4</octave></pitch><duration>1</duration><voice>1</voice><type>eighth</type><stem>down</stem><staff>1</staff><beam number="1">end</beam><notations><technical><fret>0</fret><string>3</string></technical></notations></note><note default-x="275.05" default-y="-30.00"><pitch><step>C</step><octave>4</octave></pitch><duration>1</duration><voice>1</voice><type>eighth</type><stem>down</stem><staff>1</staff><beam number="1">begin</beam><notations><technical><fret>0</fret><string>3</string></technical></notations></note><note default-x="313.14" default-y="-30.00"><pitch><step>C</step><octave>4</octave></pitch><duration>1</duration><voice>1</voice><type>eighth</type><stem>down</stem><staff>1</staff><beam number="1">end</beam><notations><technical><fret>0</fret><string>3</string></technical></notations></note></measure><measure number="7" width="206.07"><attributes/><note default-x="25.22" default-y="-15.00"><pitch><step>E</step><octave>4</octave></pitch><duration>3</duration><voice>1</voice><type>quarter</type><dot/><stem>down</stem><staff>1</staff><notations><technical><fret>0</fret><string>2</string></technical></notations></note><note default-x="83.03" default-y="-15.00"><pitch><step>G</step><octave>4</octave></pitch><duration>1</duration><tie type="start"/><voice>1</voice><type>eighth</type><stem>down</stem><staff>1</staff><notations><tied type="start"/><technical><fret>3</fret><string>2</string></technical></notations></note><note default-x="112.66" default-y="-15.00"><pitch><step>G</step><octave>4</octave></pitch><duration>4</duration><tie type="stop"/><voice>1</voice><type>half</type><stem>down</stem><staff>1</staff><notations><tied type="stop"/><technical><fret>3</fret><string>2</string></technical></notations></note></measure><measure number="8" width="305.08"><attributes/><note><rest/><duration>2</duration><voice>1</voice><type>quarter</type><staff>1</staff></note><note default-x="77.09" default-y="0.00"><pitch><step>C</step><octave>5</octave></pitch><duration>1</duration><voice>1</voice><type>eighth</type><stem>down</stem><staff>1</staff><beam number="1">begin</beam><notations><technical><fret>3</fret><string>1</string></technical></notations></note><note default-x="115.39" default-y="0.00"><pitch><step>D</step><octave>5</octave></pitch><duration>1</duration><voice>1</voice><type>eighth</type><stem>down</stem><staff>1</staff><beam number="1">end</beam><notations><technical><fret>5</fret><string>1</string></technical></notations></note><note default-x="153.60" default-y="0.00"><pitch><step>C</step><octave>5</octave></pitch><duration>1</duration><voice>1</voice><type>eighth</type><stem>down</stem><staff>1</staff><beam number="1">begin</beam><notations><technical><fret>3</fret><string>1</string></technical></notations></note><note default-x="191.82" default-y="0.00"><pitch><step>B</step><alter>-1</alter><octave>4</octave></pitch><duration>1</duration><voice>1</voice><type>eighth</type><stem>down</stem><staff>1</staff><beam number="1">end</beam><notations><technical><fret>1</fret><string>1</string></technical></notations></note><note default-x="230.04" default-y="0.00"><pitch><step>A</step><octave>4</octave></pitch><duration>1</duration><voice>1</voice><type>eighth</type><stem>down</stem><staff>1</staff><beam number="1">begin</beam><notations><technical><fret>0</fret><string>1</string></technical></notations></note><note default-x="268.26" default-y="-15.00"><pitch><step>G</step><octave>4</octave></pitch><duration>1</duration><voice>1</voice><type>eighth</type><stem>down</stem><staff>1</staff><beam number="1">end</beam><notations><technical><fret>3</fret><string>2</string></technical></notations></note></measure><measure number="9" width="177.72"><attributes/><harmony print-frame="no" placement="above"><root><root-step>F</root-step></root><kind>major</kind><frame><frame-strings>4</frame-strings><frame-frets>4</frame-frets><frame-note><string>4</string><fret>2</fret></frame-note><frame-note><string>3</string><fret>0</fret></frame-note><frame-note><string>2</string><fret>1</fret></frame-note><frame-note><string>1</string><fret>0</fret></frame-note></frame><staff>1</staff></harmony><note default-x="18.02" default-y="0.00"><pitch><step>A</step><octave>4</octave></pitch><duration>3</duration><voice>1</voice><type>quarter</type><dot/><stem>down</stem><staff>1</staff><notations><technical><fret>0</fret><string>1</string></technical></notations></note><note default-x="99.17" default-y="-15.00"><pitch><step>F</step><octave>4</octave></pitch><duration>1</duration><tie type="start"/><voice>1</voice><type>eighth</type><stem>down</stem><staff>1</staff><notations><tied type="start"/><technical><fret>1</fret><string>2</string></technical></notations></note><note default-x="130.38" default-y="-15.00"><pitch><step>F</step><octave>4</octave></pitch><duration>1</duration><tie type="stop"/><voice>1</voice><type>eighth</type><stem>down</stem><staff>1</staff><notations><tied type="stop"/><technical><fret>1</fret><string>2</string></technical></notations></note><barline location="right"><bar-style>light-heavy</bar-style><repeat direction="backward" times="2"/></barline></measure></part><part id="P2"><measure number="1" width="201.18"><attributes><divisions>2</divisions><key><fifths>-1</fifths></key><time><beats>4</beats><beat-type>4</beat-type></time><clef><sign>G</sign><line>2</line></clef><staff-details><staff-lines>5</staff-lines></staff-details></attributes><note default-x="103.77" default-y="-160.00"><pitch><step>C</step><octave>4</octave></pitch><duration>1</duration><voice>1</voice><type>eighth</type><stem>up</stem><staff>1</staff><lyric number="1" default-x="6.58" default-y="-70.00" relative-y="-13.73"><syllabic>single</syllabic><text>la</text></lyric></note><note default-x="135.71" default-y="-160.00"><pitch><step>C</step><octave>4</octave></pitch><duration>1</duration><voice>1</voice><type>eighth</type><stem>up</stem><staff>1</staff><lyric number="1" default-x="6.58" default-y="-70.00" relative-y="-13.73"><syllabic>begin</syllabic><text>cu</text></lyric></note><note default-x="167.65" default-y="-160.00"><pitch><step>C</step><octave>4</octave></pitch><duration>1</duration><voice>1</voice><type>eighth</type><stem>up</stem><staff>1</staff><lyric number="1" default-x="6.58" default-y="-70.00" relative-y="-13.73"><syllabic>middle</syllabic><text>ca</text></lyric></note></measure><measure number="2" width="204.65"><attributes/><note default-x="19.02" default-y="-145.00"><pitch><step>F</step><octave>4</octave></pitch><duration>3</duration><voice>1</voice><type>quarter</type><dot/><stem>up</stem><staff>1</staff><lyric number="1" default-x="6.58" default-y="-70.00" relative-y="-13.73"><syllabic>middle</syllabic><text>ra</text></lyric></note><note default-x="59.95" default-y="-135.00"><pitch><step>A</step><octave>4</octave></pitch><duration>1</duration><tie type="start"/><voice>1</voice><type>eighth</type><stem>up</stem><staff>1</staff><notations><tied type="start"/></notations><lyric number="1" default-x="13.38" default-y="-70.00" relative-y="-13.73"><syllabic>end</syllabic><text>cha...</text></lyric></note><note default-x="89.09" default-y="-135.00"><pitch><step>A</step><octave>4</octave></pitch><duration>1</duration><tie type="stop"/><voice>1</voice><type>eighth</type><stem>up</stem><staff>1</staff><beam number="1">begin</beam><notations><tied type="stop"/></notations></note><note default-x="110.07" default-y="-160.00"><pitch><step>C</step><octave>4</octave></pitch><duration>1</duration><voice>1</voice><type>eighth</type><stem>up</stem><staff>1</staff><beam number="1">end</beam><lyric number="1" default-x="6.58" default-y="-70.00" relative-y="-13.73"><syllabic>single</syllabic><text>la</text></lyric></note><note default-x="140.17" default-y="-160.00"><pitch><step>C</step><octave>4</octave></pitch><duration>1</duration><voice>1</voice><type>eighth</type><stem>up</stem><staff>1</staff><beam number="1">begin</beam><lyric number="1" default-x="6.58" default-y="-70.00" relative-y="-13.73"><syllabic>begin</syllabic><text>cu</text></lyric></note><note default-x="172.07" default-y="-160.00"><pitch><step>C</step><octave>4</octave></pitch><duration>1</duration><voice>1</voice><type>eighth</type><stem>up</stem><staff>1</staff><beam number="1">end</beam><lyric number="1" default-x="6.58" default-y="-70.00" relative-y="-13.73"><syllabic>middle</syllabic><text>ca</text></lyric></note></measure><measure number="3" width="132.24"><attributes/><note default-x="19.02" default-y="-145.00"><pitch><step>F</step><octave>4</octave></pitch><duration>3</duration><voice>1</voice><type>quarter</type><dot/><stem>up</stem><staff>1</staff><lyric number="1" default-x="6.58" default-y="-70.00" relative-y="-13.73"><syllabic>middle</syllabic><text>ra</text></lyric></note><note default-x="54.92" default-y="-135.00"><pitch><step>A</step><octave>4</octave></pitch><duration>1</duration><tie type="start"/><voice>1</voice><type>eighth</type><stem>up</stem><staff>1</staff><notations><tied type="start"/></notations><lyric number="1" default-x="6.58" default-y="-70.00" relative-y="-13.73"><syllabic>end</syllabic><text>cha</text></lyric></note><note default-x="83.89" default-y="-135.00"><pitch><step>A</step><octave>4</octave></pitch><duration>4</duration><tie type="stop"/><voice>1</voice><type>half</type><stem>up</stem><staff>1</staff><notations><tied type="stop"/></notations></note></measure><measure number="4" width="246.24"><attributes/><note><rest/><duration>2</duration><voice>1</voice><type>quarter</type><staff>1</staff></note><note default-x="36.16" default-y="-145.00"><pitch><step>F</step><octave>4</octave></pitch><duration>1</duration><voice>1</voice><type>eighth</type><stem>up</stem><staff>1</staff><beam number="1">begin</beam><lyric number="1" default-x="6.58" default-y="-70.00" relative-y="-13.73"><syllabic>single</syllabic><text>ya</text></lyric></note><note default-x="69.26" default-y="-145.00"><pitch><step>F</step><octave>4</octave></pitch><duration>1</duration><voice>1</voice><type>eighth</type><stem>up</stem><staff>1</staff><beam number="1">end</beam><lyric number="1" default-x="6.58" default-y="-70.00" relative-y="-13.73"><syllabic>single</syllabic><text>no</text></lyric></note><note default-x="108.16" default-y="-150.00"><pitch><step>E</step><octave>4</octave></pitch><duration>1</duration><voice>1</voice><type>eighth</type><stem>up</stem><staff>1</staff><beam number="1">begin</beam><lyric number="1" default-x="6.58" default-y="-70.00" relative-y="-13.73"><syllabic>single</syllabic><text>pue</text></lyric></note><note default-x="146.46" default-y="-150.00"><pitch><step>E</step><octave>4</octave></pitch><duration>1</duration><voice>1</voice><type>eighth</type><stem>up</stem><staff>1</staff><beam number="1">end</beam><lyric number="1" default-x="6.58" default-y="-70.00" relative-y="-13.73"><syllabic>single</syllabic><text>de</text></lyric></note><note default-x="178.36" default-y="-155.00"><pitch><step>D</step><octave>4</octave></pitch><duration>1</duration><voice>1</voice><type>eighth</type><stem>up</stem><staff>1</staff><beam number="1">begin</beam><lyric number="1" default-x="6.58" default-y="-70.00" relative-y="-13.73"><syllabic>begin</syllabic><text>ca</text></lyric></note><note default-x="211.66" default-y="-155.00"><pitch><step>D</step><octave>4</octave></pitch><duration>1</duration><voice>1</voice><type>eighth</type><stem>up</stem><staff>1</staff><beam number="1">end</beam><lyric number="1" default-x="6.58" default-y="-70.00" relative-y="-13.73"><syllabic>middle</syllabic><text>mi</text></lyric></note></measure><measure number="5" width="220.38"><attributes/><note default-x="24.86" default-y="-160.00"><pitch><step>C</step><octave>4</octave></pitch><duration>4</duration><tie type="start"/><voice>1</voice><type>half</type><stem>up</stem><staff>1</staff><notations><tied type="start"/></notations><lyric number="1" default-x="7.42" default-y="-70.00" relative-y="-13.73"><syllabic>end</syllabic><text>nar.</text></lyric></note><note default-x="82.13" default-y="-160.00"><pitch><step>C</step><octave>4</octave></pitch><duration>1</duration><tie type="stop"/><voice>1</voice><type>eighth</type><stem>up</stem><staff>1</staff><beam number="1">begin</beam><notations><tied type="stop"/></notations></note><note default-x="105.40" default-y="-160.00"><pitch><step>C</step><octave>4</octave></pitch><duration>1</duration><voice>1</voice><type>eighth</type><stem>up</stem><staff>1</staff><beam number="1">end</beam><lyric number="1" default-x="6.58" default-y="-70.00" relative-y="-13.73"><syllabic>begin</syllabic><text>por</text></lyric></note><note default-x="148.10" default-y="-160.00"><pitch><step>C</step><octave>4</octave></pitch><duration>1</duration><voice>1</voice><type>eighth</type><stem>up</stem><staff>1</staff><beam number="1">begin</beam><lyric number="1" default-x="6.58" default-y="-70.00" relative-y="-13.73"><syllabic>end</syllabic><text>que</text></lyric></note><note default-x="186.60" default-y="-160.00"><pitch><step>C</step><octave>4</octave></pitch><duration>1</duration><voice>1</voice><type>eighth</type><stem>up</stem><staff>1</staff><beam number="1">end</beam><lyric number="1" default-x="6.58" default-y="-70.00" relative-y="-13.73"><syllabic>single</syllabic><text>no</text></lyric></note></measure><measure number="6" width="349.82"><attributes/><note default-x="78.87" default-y="-152.62"><pitch><step>E</step><octave>4</octave></pitch><duration>3</duration><voice>1</voice><type>quarter</type><dot/><stem>up</stem><staff>1</staff><lyric number="1" default-x="6.58" default-y="-70.00" relative-y="-10.80"><syllabic>begin</syllabic><text>tie</text></lyric></note><note default-x="153.18" default-y="-142.62"><pitch><step>G</step><octave>4</octave></pitch><duration>1</duration><tie type="start"/><voice>1</voice><type>eighth</type><stem>up</stem><staff>1</staff><notations><tied type="start"/></notations><lyric number="1" default-x="6.58" default-y="-70.00" relative-y="-10.80"><syllabic>end</syllabic><text>ne</text></lyric></note><note default-x="191.27" default-y="-142.62"><pitch><step>G</step><octave>4</octave></pitch><duration>1</duration><tie type="stop"/><voice>1</voice><type>eighth</type><stem>up</stem><staff>1</staff><beam number="1">begin</beam><notations><tied type="stop"/></notations></note><note default-x="229.35" default-y="-162.62"><pitch><step>C</step><octave>4</octave></pitch><duration>1</duration><voice>1</voice><type>eighth</type><stem>up</stem><staff>1</staff><beam number="1">end</beam><lyric number="1" default-x="6.58" default-y="-70.00" relative-y="-10.80"><syllabic>begin</syllabic><text>por</text></lyric></note><note default-x="272.05" default-y="-162.62"><pitch><step>C</step><octave>4</octave></pitch><duration>1</duration><voice>1</voice><type>eighth</type><stem>up</stem><staff>1</staff><beam number="1">begin</beam><lyric number="1" default-x="6.58" default-y="-70.00" relative-y="-10.80"><syllabic>end</syllabic><text>que</text></lyric></note><note default-x="310.14" default-y="-162.62"><pitch><step>C</step><octave>4</octave></pitch><duration>1</duration><voice>1</voice><type>eighth</type><stem>up</stem><staff>1</staff><beam number="1">end</beam><lyric number="1" default-x="6.58" default-y="-70.00" relative-y="-10.80"><syllabic>single</syllabic><text>le</text></lyric></note></measure><measure number="7" width="206.07"><attributes/><note default-x="22.22" default-y="-152.62"><pitch><step>E</step><octave>4</octave></pitch><duration>3</duration><voice>1</voice><type>quarter</type><dot/><stem>up</stem><staff>1</staff><lyric number="1" default-x="6.58" default-y="-70.00" relative-y="-10.80"><syllabic>begin</syllabic><text>fal</text></lyric></note><note default-x="80.03" default-y="-142.62"><pitch><step>G</step><octave>4</octave></pitch><duration>1</duration><tie type="start"/><voice>1</voice><type>eighth</type><stem>up</stem><staff>1</staff><notations><tied type="start"/></notations><lyric number="1" default-x="6.58" default-y="-70.00" relative-y="-10.80"><syllabic>end</syllabic><text>ta</text></lyric></note><note default-x="109.30" default-y="-142.62"><pitch><step>G</step><octave>4</octave></pitch><duration>4</duration><tie type="stop"/><voice>1</voice><type>half</type><stem>up</stem><staff>1</staff><notations><tied type="stop"/></notations></note></measure><measure number="8" width="305.08"><attributes/><note><rest/><duration>2</duration><voice>1</voice><type>quarter</type><staff>1</staff></note><note default-x="74.09" default-y="-127.62"><pitch><step>C</step><octave>5</octave></pitch><duration>1</duration><voice>1</voice><type>eighth</type><stem>down</stem><staff>1</staff><beam number="1">begin</beam><lyric number="1" default-x="6.58" default-y="-70.00" relative-y="-10.80"><syllabic>single</syllabic><text>las</text></lyric></note><note default-x="112.39" default-y="-122.62"><pitch><step>D</step><octave>5</octave></pitch><duration>1</duration><voice>1</voice><type>eighth</type><stem>down</stem><staff>1</staff><beam number="1">end</beam><lyric number="1" default-x="6.58" default-y="-70.00" relative-y="-10.80"><syllabic>single</syllabic><text>dos</text></lyric></note><note default-x="150.60" default-y="-127.62"><pitch><step>C</step><octave>5</octave></pitch><duration>1</duration><voice>1</voice><type>eighth</type><stem>up</stem><staff>1</staff><beam number="1">begin</beam><lyric number="1" default-x="6.58" default-y="-70.00" relative-y="-10.80"><syllabic>begin</syllabic><text>pa</text></lyric></note><note default-x="188.82" default-y="-132.62"><pitch><step>B</step><alter>-1</alter><octave>4</octave></pitch><duration>1</duration><voice>1</voice><type>eighth</type><stem>up</stem><staff>1</staff><beam number="1">end</beam><lyric number="1" default-x="6.58" default-y="-70.00" relative-y="-10.80"><syllabic>middle</syllabic><text>ti</text></lyric></note><note default-x="227.04" default-y="-137.62"><pitch><step>A</step><octave>4</octave></pitch><duration>1</duration><voice>1</voice><type>eighth</type><stem>up</stem><staff>1</staff><beam number="1">begin</beam><lyric number="1" default-x="6.58" default-y="-70.00" relative-y="-10.80"><syllabic>end</syllabic><text>ta</text></lyric></note><note default-x="265.26" default-y="-142.62"><pitch><step>G</step><octave>4</octave></pitch><duration>1</duration><voice>1</voice><type>eighth</type><stem>up</stem><staff>1</staff><beam number="1">end</beam><lyric number="1" default-x="6.58" default-y="-70.00" relative-y="-10.80"><syllabic>single</syllabic><text>de</text></lyric></note></measure><measure number="9" width="177.72"><attributes/><note default-x="15.02" default-y="-137.62"><pitch><step>A</step><octave>4</octave></pitch><duration>3</duration><voice>1</voice><type>quarter</type><dot/><stem>up</stem><staff>1</staff><lyric number="1" default-x="6.58" default-y="-70.00" relative-y="-10.80"><syllabic>begin</syllabic><text>a</text></lyric></note><note default-x="96.17" default-y="-147.62"><pitch><step>F</step><octave>4</octave></pitch><duration>1</duration><tie type="start"/><voice>1</voice><type>eighth</type><stem>up</stem><staff>1</staff><notations><tied type="start"/></notations><lyric number="1" default-x="6.58" default-y="-70.00" relative-y="-10.80"><syllabic>end</syllabic><text>tras</text></lyric></note><note default-x="127.38" default-y="-147.62"><pitch><step>F</step><octave>4</octave></pitch><duration>1</duration><tie type="stop"/><voice>1</voice><type>eighth</type><stem>up</stem><staff>1</staff><notations><tied type="stop"/></notations></note><barline location="right"><bar-style>light-heavy</bar-style><repeat direction="backward" times="2"/></barline></measure></part><part id="P3"><measure number="1" width="201.18"><attributes><divisions>2</divisions><key><fifths>-1</fifths></key><time><beats>4</beats><beat-type>4</beat-type></time><clef><sign>F</sign><line>4</line></clef><staff-details><staff-lines>4</staff-lines><staff-tuning line="1"><tuning-step>E</tuning-step><tuning-alter>0</tuning-alter><tuning-octave>1</tuning-octave></staff-tuning><staff-tuning line="2"><tuning-step>A</tuning-step><tuning-alter>0</tuning-alter><tuning-octave>1</tuning-octave></staff-tuning><staff-tuning line="3"><tuning-step>D</tuning-step><tuning-alter>0</tuning-alter><tuning-octave>2</tuning-octave></staff-tuning><staff-tuning line="4"><tuning-step>G</tuning-step><tuning-alter>0</tuning-alter><tuning-octave>2</tuning-octave></staff-tuning></staff-details></attributes><note><rest/><duration>2</duration><voice>1</voice><type>quarter</type><staff>1</staff></note><note><rest/><duration>1</duration><voice>1</voice><type>eighth</type><staff>1</staff></note></measure><measure number="2" width="204.65"><attributes/><note><pitch><step>F</step><octave>2</octave></pitch><duration>3</duration><voice>1</voice><type>quarter</type><dot/><staff>1</staff><notations><technical><fret>3</fret><string>2</string></technical></notations></note><note><pitch><step>A</step><octave>2</octave></pitch><duration>1</duration><tie type="start"/><voice>1</voice><type>eighth</type><staff>1</staff><notations><tied type="start"/><technical><fret>2</fret><string>1</string></technical></notations></note><note><pitch><step>A</step><octave>2</octave></pitch><duration>2</duration><tie type="stop"/><voice>1</voice><type>quarter</type><staff>1</staff><notations><tied type="stop"/><technical><fret>2</fret><string>1</string></technical></notations></note><note><pitch><step>C</step><octave>3</octave></pitch><duration>2</duration><voice>1</voice><type>quarter</type><staff>1</staff><notations><technical><fret>5</fret><string>1</string></technical></notations></note></measure><measure number="3" width="132.24"><attributes/><note><pitch><step>F</step><octave>2</octave></pitch><duration>3</duration><voice>1</voice><type>quarter</type><dot/><staff>1</staff><notations><technical><fret>3</fret><string>2</string></technical></notations></note><note><pitch><step>A</step><octave>2</octave></pitch><duration>1</duration><tie type="start"/><voice>1</voice><type>eighth</type><staff>1</staff><notations><tied type="start"/><technical><fret>2</fret><string>1</string></technical></notations></note><note><pitch><step>A</step><octave>2</octave></pitch><duration>2</duration><tie type="stop"/><voice>1</voice><type>quarter</type><staff>1</staff><notations><tied type="stop"/><technical><fret>2</fret><string>1</string></technical></notations></note><note><pitch><step>C</step><octave>3</octave></pitch><duration>2</duration><voice>1</voice><type>quarter</type><staff>1</staff><notations><technical><fret>5</fret><string>1</string></technical></notations></note></measure><measure number="4" width="246.24"><attributes/><note><pitch><step>F</step><octave>2</octave></pitch><duration>3</duration><voice>1</voice><type>quarter</type><dot/><staff>1</staff><notations><technical><fret>3</fret><string>2</string></technical></notations></note><note><pitch><step>A</step><octave>2</octave></pitch><duration>1</duration><tie type="start"/><voice>1</voice><type>eighth</type><staff>1</staff><notations><tied type="start"/><technical><fret>2</fret><string>1</string></technical></notations></note><note><pitch><step>A</step><octave>2</octave></pitch><duration>2</duration><tie type="stop"/><voice>1</voice><type>quarter</type><staff>1</staff><notations><tied type="stop"/><technical><fret>2</fret><string>1</string></technical></notations></note><note><pitch><step>C</step><octave>3</octave></pitch><duration>2</duration><voice>1</voice><type>quarter</type><staff>1</staff><notations><technical><fret>5</fret><string>1</string></technical></notations></note></measure><measure number="5" width="220.38"><attributes/><note><pitch><step>C</step><octave>2</octave></pitch><duration>3</duration><voice>1</voice><type>quarter</type><dot/><staff>1</staff><notations><technical><fret>3</fret><string>3</string></technical></notations></note><note><pitch><step>E</step><octave>2</octave></pitch><duration>1</duration><tie type="start"/><voice>1</voice><type>eighth</type><staff>1</staff><notations><tied type="start"/><technical><fret>2</fret><string>2</string></technical></notations></note><note><pitch><step>E</step><octave>2</octave></pitch><duration>2</duration><tie type="stop"/><voice>1</voice><type>quarter</type><staff>1</staff><notations><tied type="stop"/><technical><fret>2</fret><string>2</string></technical></notations></note><note><pitch><step>G</step><octave>2</octave></pitch><duration>2</duration><voice>1</voice><type>quarter</type><staff>1</staff><notations><technical><fret>0</fret><string>1</string></technical></notations></note></measure><measure number="6" width="349.82"><attributes/><note><pitch><step>C</step><octave>2</octave></pitch><duration>3</duration><voice>1</voice><type>quarter</type><dot/><staff>1</staff><notations><technical><fret>3</fret><string>3</string></technical></notations></note><note><pitch><step>E</step><octave>2</octave></pitch><duration>1</duration><tie type="start"/><voice>1</voice><type>eighth</type><staff>1</staff><notations><tied type="start"/><technical><fret>2</fret><string>2</string></technical></notations></note><note><pitch><step>E</step><octave>2</octave></pitch><duration>2</duration><tie type="stop"/><voice>1</voice><type>quarter</type><staff>1</staff><notations><tied type="stop"/><technical><fret>2</fret><string>2</string></technical></notations></note><note><pitch><step>G</step><octave>2</octave></pitch><duration>2</duration><voice>1</voice><type>quarter</type><staff>1</staff><notations><technical><fret>0</fret><string>1</string></technical></notations></note></measure><measure number="7" width="206.07"><attributes/><note><pitch><step>C</step><octave>2</octave></pitch><duration>3</duration><voice>1</voice><type>quarter</type><dot/><staff>1</staff><notations><technical><fret>3</fret><string>3</string></technical></notations></note><note><pitch><step>E</step><octave>2</octave></pitch><duration>1</duration><tie type="start"/><voice>1</voice><type>eighth</type><staff>1</staff><notations><tied type="start"/><technical><fret>2</fret><string>2</string></technical></notations></note><note><pitch><step>E</step><octave>2</octave></pitch><duration>2</duration><tie type="stop"/><voice>1</voice><type>quarter</type><staff>1</staff><notations><tied type="stop"/><technical><fret>2</fret><string>2</string></technical></notations></note><note><pitch><step>G</step><octave>2</octave></pitch><duration>2</duration><voice>1</voice><type>quarter</type><staff>1</staff><notations><technical><fret>0</fret><string>1</string></technical></notations></note></measure><measure number="8" width="305.08"><attributes/><note><pitch><step>C</step><octave>2</octave></pitch><duration>3</duration><voice>1</voice><type>quarter</type><dot/><staff>1</staff><notations><technical><fret>3</fret><string>3</string></technical></notations></note><note><pitch><step>E</step><octave>2</octave></pitch><duration>1</duration><tie type="start"/><voice>1</voice><type>eighth</type><staff>1</staff><notations><tied type="start"/><technical><fret>2</fret><string>2</string></technical></notations></note><note><pitch><step>E</step><octave>2</octave></pitch><duration>2</duration><tie type="stop"/><voice>1</voice><type>quarter</type><staff>1</staff><notations><tied type="stop"/><technical><fret>2</fret><string>2</string></technical></notations></note><note><pitch><step>G</step><octave>2</octave></pitch><duration>2</duration><voice>1</voice><type>quarter</type><staff>1</staff><notations><technical><fret>0</fret><string>1</string></technical></notations></note></measure><measure number="9" width="177.72"><attributes/><note><pitch><step>F</step><octave>2</octave></pitch><duration>2</duration><voice>1</voice><type>quarter</type><staff>1</staff><notations><technical><fret>3</fret><string>2</string></technical></notations></note><note><rest/><duration>2</duration><voice>1</voice><type>quarter</type><staff>1</staff></note><note><rest/><duration>1</duration><voice>1</voice><type>eighth</type><staff>1</staff></note><barline location="right"><bar-style>light-heavy</bar-style><repeat direction="backward" times="2"/></barline></measure></part></score-partwise>